<svg width="7743" height="9459" viewBox="0 0 7743 9459" fill="none" xmlns="http://www.w3.org/2000/svg">
<g id="undraw_world_re_768g 1">
<path id="Vector" d="M5546.23 2171.18C5517.24 2150.07 5487.54 2135.52 5458.84 2128.38C5430.14 2121.24 5403.01 2121.64 5378.99 2129.55C5354.97 2137.47 5334.55 2152.76 5318.88 2174.52C5303.22 2196.29 5292.63 2224.12 5287.71 2256.41L5177.34 2981.79L4390.09 2709.26L4395.74 2959.62L5490.18 3615.56L5725.13 2593.16C5719.65 2617.02 5592.42 2204.82 5546.23 2171.18Z" fill="#CCCCCC"/>
<g id="earth-rotate">
<path id="Vector_2" d="M4901.04 4139.31C4900.72 4435.97 4844.85 4729.66 4736.63 5003.61C4628.4 5277.56 4469.93 5526.4 4270.28 5735.92C4070.63 5945.44 3833.7 6111.52 3573.03 6224.69C3312.37 6337.86 3033.07 6395.89 2751.09 6395.48C1565.3 6393.97 605.281 5381.41 606.86 4133.88C606.963 3891.22 644.243 3650.15 717.266 3419.96C860.63 2970.4 1134.69 2579.61 1500.69 2302.85C1866.69 2026.1 2306.11 1877.37 2756.81 1877.72C3145.51 1878.07 3526.81 1989.46 3860.01 2200.01C4193.21 2410.55 4465.8 2712.35 4648.68 3073.18C4694.02 3162.2 4733.56 3254.37 4767.02 3349.04C4771.65 3362.22 4776.17 3375.4 4780.56 3388.71L4780.56 3388.84C4800.17 3447.34 4817.43 3506.93 4832.34 3567.6C4878.35 3754.3 4901.44 3946.44 4901.04 4139.31Z" fill="#312D58"/>
<path id="Vector_3" d="M2829.47 2612.8C2745.55 2557.79 2652.34 2526.69 2556.94 2521.85C2461.55 2517.01 2366.49 2538.57 2279.02 2584.88C2202 2625.27 2120.86 2697.8 2095.02 2828.92C2198.96 2754.97 2333.23 2872.19 2359.72 3059.98L2353.48 3062.05C2339.2 3192.08 2370.53 3333.71 2431.43 3414.43C2439.54 3330.68 2485.18 3273.73 2530.04 3238.17C2574.9 3202.62 2624.51 3176.81 2658.8 3115.64C2699.45 3043.13 2709.88 2937.09 2726.11 2840.36C2742.34 2743.63 2773.04 2639.68 2829.47 2612.8Z" fill="white"/>
<path id="Vector_4" d="M2246.78 3718.74C2217.95 3770.91 2179.5 3803.62 2144.97 3844.36C2110.56 3885.23 2077.78 3940.4 2070.84 4011.3C2066.42 4056.72 2073.11 4102.91 2072.12 4148.85C2071.13 4194.78 2058.39 4246.47 2032.53 4257.85C1991.7 4275.62 1960.67 4183.97 1918.73 4177.52C1885.41 4172.45 1855.32 4235.79 1864.91 4290.77C1874.49 4345.75 1919.84 4370.15 1945.94 4334.3C1969.45 4382.14 1952.73 4468.84 1917.3 4483.48C1913.53 4513.59 1909.75 4543.58 1906.08 4573.69C1816.68 4497.91 1726.34 4420.86 1650.38 4309.95C1565.89 4187.65 1513.58 4037.59 1500.17 3879.06C1490.47 3751.67 1505.29 3605.98 1457.03 3507.91C1418.4 3429.43 1351.97 3412.02 1292.16 3416.84C1281.26 3417.71 1270.25 3419.2 1259.35 3420.82C1294.78 3292.82 1339.73 3168.97 1393.65 3050.77C1405.83 3044.47 1417.14 3035.98 1427.22 3025.59C1482.94 2968.56 1507.8 2853.01 1553.06 2773.12C1555.98 2767.98 1559 2762.96 1562.12 2758.07C1608.41 2685.22 1670.34 2647.77 1730.19 2612.96C1862.67 2535.45 1998.98 2456.93 2138.72 2467.9L2098.95 2472.49C2052.34 2629.56 2005.7 2786.62 1959.02 2943.68C1951.93 2967.77 1944.77 2991.9 1937.54 3016.07C1911.05 3105.39 1883.73 3200.48 1887.65 3300.51C1889.97 3359.74 1906.91 3423.01 1939.28 3443.39C1969.47 3462.25 2002.52 3439.2 2031.72 3416.4C2044.09 3406.87 2056.35 3397.35 2068.72 3387.7C2113.1 3353.25 2162.25 3317.92 2209.05 3341.07C2251.9 3362.21 2283.48 3432.65 2289.41 3508.59C2294.83 3582.4 2279.84 3656.31 2246.78 3718.74Z" fill="white"/>
<path id="Vector_5" d="M2509.1 4791.78C2379.74 4695.26 2250.38 4598.73 2121.02 4502.2L2123.22 4495.36C2042.67 4532.32 2009.03 4705.25 2022.15 4846.72C2035.28 4988.19 2080.23 5114.7 2102.85 5252.56C2133.34 5441.21 2121.49 5636.32 2068.54 5817.62C2239.09 5586.92 2390.09 5336.14 2519.27 5069.05C2537.31 5035.39 2551.07 4998.65 2560.09 4960.06C2568.37 4919 2567.16 4869.62 2550.73 4836.67C2540.16 4817.76 2525.85 4802.33 2509.1 4791.78Z" fill="white"/>
<path id="Vector_6" d="M2000.29 3038.01C1986.5 3075.35 1981.14 3125.17 1993.57 3163.85C2006.27 3203.35 2033.18 3221.23 2057.96 3236.12L2129.45 3279.07C2153.24 3293.36 2178.87 3307.8 2203.15 3296.1C2232.44 3281.98 2252.8 3226.55 2247.61 3175.06C2242.1 3120.27 2213.57 3082.55 2187.19 3050.43C2150.27 3005.47 2113.35 2960.51 2076.43 2915.56L2055.55 2946.38C2032.98 2972.93 2014.3 3003.91 2000.29 3038.01Z" fill="white"/>
<path id="Vector_7" d="M4518 3626.86C4550.17 3636.07 4582.35 3645.27 4614.52 3654.47C4608.75 3785.86 4554.71 3907.4 4482.39 3951.35C4452.26 3969.64 4418.71 3976.37 4393.75 4010.6C4371.18 4041.7 4359.7 4090.12 4349.15 4136.42C4330.67 4217.21 4312.19 4298.01 4293.71 4378.81C4273.88 4465.88 4248.42 4562.6 4197.09 4593.91C4153.03 4620.84 4102.72 4587.77 4068.94 4532.38C4035.17 4476.99 4014.6 4402.55 3994.65 4329.99C3995.8 4409.05 3965.28 4486.57 3922.16 4514C3878.93 4541.43 3826.42 4516.51 3797.64 4455.11C3776.93 4411.03 3768.38 4352.92 3748.09 4308.21C3727.8 4263.51 3685.16 4237.86 3662.89 4279.74C3648.21 4307.59 3650.02 4350.26 3642.71 4385.64C3631.33 4440.59 3597.02 4475.06 3563.07 4478.03C3529.21 4481 3496.23 4457.36 3467.92 4425.32C3409.55 4358.99 3366.6 4253.77 3350.03 4136.91C3342.72 4084.82 3340.72 4028.09 3353.55 3979.29C3366.38 3930.49 3397.27 3892.88 3427.88 3902.2C3448.09 3850.78 3408.41 3782.46 3372.59 3788.43C3336.65 3794.41 3308.46 3840.93 3278.93 3876.67C3249.5 3912.39 3208.35 3938.32 3178.8 3902.77C3178.97 3935.77 3156.72 3957.58 3137.52 3954.8C3118.42 3952.14 3101.41 3933.54 3083.89 3920.34C3016.15 3869.18 2930.04 3902.95 2881.74 3999.52C2912.04 3844.7 2956.39 3667.05 3048.95 3630.78C3086.76 3615.89 3127.97 3628.24 3163.71 3602.43C3227 3556.71 3239.99 3383.66 3185.47 3312.19C3192.34 3379.71 3190.89 3458.52 3161.35 3504.67C3131.8 3550.81 3069.96 3520.61 3073.78 3452.35C3065.21 3499.4 3022.84 3506.5 3003.37 3470.33C2983.79 3434.17 2985.52 3375.06 2999.49 3331.91C3013.46 3288.75 3037.17 3257.78 3060.15 3228.07C3109.55 3164.26 3159.68 3099.69 3216.83 3059.6C3274.09 3019.51 3340.14 3006.04 3397.4 3046.03C3427.59 3067.15 3454.13 3102.32 3484.94 3120.93C3515.75 3139.67 3554.9 3137.34 3575.41 3093.69C3598.41 3045.02 3587.71 2972.72 3596.3 2911.87C3611.7 2804.34 3700.74 2754.13 3749.97 2825.22C3713.12 2813.75 3674.95 2866.41 3670.3 2930.29C3665.55 2994.16 3692.15 3058.7 3727.84 3078.07C3787.82 3110.27 3846.68 3029.53 3892.15 2954.79C3939.59 2876.54 3987.11 2798.33 4034.69 2720.16C4042.29 2706.85 4050.81 2694.35 4060.17 2682.8C4075.07 2665.3 4094.91 2655.29 4115.67 2654.8C4136.43 2654.32 4156.57 2663.39 4172 2680.18C4219.91 2727.55 4242.31 2824.59 4281.58 2891.4C4338.56 2988.48 4423.98 3012.18 4503.49 3031.11C4562.76 3045.12 4622.06 3059.2 4681.4 3073.38C4720.85 3162.4 4755.25 3254.56 4784.35 3349.22C4683.78 3400.68 4590.94 3497.07 4518 3626.86Z" fill="white"/>
<path id="Vector_8" d="M4707.75 5137.08C4663.13 5246.2 4611.26 5350.76 4552.65 5449.75C4515.3 5430.37 4475.08 5464.83 4440.05 5497.17C4403.46 5531.01 4359.49 5563.96 4322.05 5533.04C4283.78 5501.36 4271.54 5412.87 4283.77 5342.74C4296.01 5272.72 4326.4 5217.04 4355.85 5164.12C4387.07 5107.94 4420.47 5049.62 4463.79 5027.84C4507.22 5006.06 4562.93 5037 4575.51 5111.56L4606.24 5110.35C4589.04 5081.71 4598.15 5022.49 4621.32 5012.1C4648.02 4999.96 4671.11 5044.29 4686.84 5083.47C4693.88 5101.17 4701.02 5119 4707.75 5137.08Z" fill="white"/>
<path id="Vector_9" d="M3531.39 4605.5C3465.32 4610.44 3413.12 4512.08 3378.47 4415.34C3343.82 4318.6 3312.24 4207.97 3252.7 4158.68C3218.68 4130.51 3179.85 4126.6 3142.93 4112.93C3106 4099.26 3067.37 4071.01 3049.79 4013.56L3007.91 3993.04C2952.52 4030.58 2896.4 4068.81 2848.64 4129.96C2795.07 4198.56 2761.65 4286.54 2753.53 4380.34C2745.39 4481.71 2774.81 4594.8 2829.99 4632.95C2873.59 4663.1 2924.43 4644.19 2968.6 4671.8C3023.78 4706.29 3056.45 4806.32 3068.74 4905.05C3081.02 5003.79 3077.75 5106.38 3086.5 5206.23C3095.25 5306.09 3119.6 5410.01 3170.18 5461.24C3233.49 5525.34 3326.56 5472.26 3355.14 5355.74C3369.16 5298.59 3368.76 5234.08 3379.27 5174.75C3397.78 5070.26 3447.45 4992.78 3486.88 4907.1C3526.31 4821.43 3557.41 4705.03 3531.39 4605.5Z" fill="white"/>
<path id="Vector_10" d="M2879.94 3577.72C2886.09 3584.58 2891.83 3591.97 2897.11 3599.81C2902.57 3611.24 2905.35 3624.25 2905.15 3637.45C2904.95 3650.64 2901.77 3663.52 2895.96 3674.7C2903.92 3674.16 2911.7 3671.64 2918.81 3667.28C2925.92 3662.92 2932.2 3656.83 2937.27 3649.39C2949.35 3632.81 2959.97 3614.77 2968.98 3595.55C2975.74 3582.28 2982.93 3564.33 2978.38 3548.55C2975.27 3537.79 2967.89 3533.18 2962.73 3525.08C2954.55 3512.24 2952.54 3491.86 2948.32 3474.24C2939.2 3436.19 2917.28 3408.19 2893.45 3404.16L2896.76 3404.93C2886.8 3409.04 2879.82 3428.14 2882 3445.34C2883.98 3461.01 2892.29 3474.02 2891.45 3489.99C2890.23 3512.95 2871.22 3523.71 2870.02 3546.68C2869.82 3558.2 2873.38 3569.35 2879.94 3577.72Z" fill="white"/>
<path id="Vector_11" d="M2767.25 3187.28C2767.35 3187.25 2767.45 3187.24 2767.55 3187.21C2769.58 3184.98 2771.47 3182.55 2773.19 3179.96L2767.25 3187.28Z" fill="#E6E6E6"/>
<path id="Vector_12" d="M2786.92 3295.11C2801.54 3283.78 2809.74 3252.39 2804.95 3226.11C2800.18 3199.99 2783.22 3182.41 2767.54 3187.21C2762.99 3192.77 2757.35 3196.85 2751.14 3199.05C2744.92 3201.25 2738.35 3201.51 2732.04 3199.79C2722.36 3196.77 2711.73 3188.99 2703.32 3197.8C2698.51 3204.38 2695.14 3212.32 2693.51 3220.88C2690.39 3232.41 2687.26 3243.94 2684.14 3255.47C2682.66 3259.6 2682.27 3264.18 2683.02 3268.59C2683.61 3270.35 2684.57 3271.9 2685.81 3273.09C2687.04 3274.28 2688.5 3275.06 2690.06 3275.37C2708.71 3282.04 2727.35 3288.71 2746 3295.38C2759.59 3300.24 2774.26 3304.93 2786.92 3295.11Z" fill="white"/>
<path id="Vector_13" d="M4193.36 4785.27C4184.76 4768.2 4176.16 4751.12 4167.56 4734.04C4159.11 4714.27 4147.55 4696.68 4133.53 4682.26C4130.45 4679.13 4126.88 4676.78 4123.03 4675.34C4119.18 4673.91 4115.14 4673.41 4111.13 4673.89C4107.12 4674.37 4103.24 4675.82 4099.7 4678.14C4096.16 4680.46 4093.04 4683.62 4090.52 4687.42L4091.56 4697.16C4111.18 4727 4131.93 4760.14 4136.86 4804.38C4138.8 4821.82 4138.1 4839.87 4139.8 4857.39C4141.5 4874.91 4146.38 4893.08 4155.72 4900.64C4169.29 4911.62 4185.25 4895.48 4194.94 4875.76C4203.6 4859.57 4207.5 4840.33 4206.01 4821.14C4203.87 4808.26 4199.57 4796.05 4193.36 4785.27Z" fill="white"/>
<path id="Vector_14" d="M4577.97 4134.03C4580.49 4114.26 4583.01 4094.5 4585.53 4074.73C4589.6 4053.03 4590.13 4030.57 4587.09 4008.62C4586.4 4003.82 4584.93 3999.24 4582.75 3995.15C4580.57 3991.06 4577.74 3987.53 4574.42 3984.78C4571.1 3982.03 4567.36 3980.11 4563.42 3979.13C4559.47 3978.15 4555.41 3978.13 4551.46 3979.08L4547.06 3987.35C4546.16 4025.46 4544.38 4066.97 4524.58 4104.67C4516.77 4119.54 4506.62 4132.8 4498.59 4147.53C4490.55 4162.26 4484.6 4179.97 4487.72 4193.03C4492.24 4211.99 4513.05 4212.06 4530.96 4204.51C4546.21 4198.86 4559.45 4187.17 4568.53 4171.32C4573.76 4159.8 4576.97 4147.11 4577.97 4134.03Z" fill="#E6E6E6"/>
<path id="Vector_15" d="M4328.61 4807.65C4332.84 4793.01 4326.78 4776.2 4325.51 4760C4324.92 4739.09 4329.53 4718.44 4338.75 4700.72C4347.91 4684.01 4354.86 4665.68 4359.34 4646.38C4361.23 4637.59 4360.9 4628.31 4358.39 4619.75C4355.55 4612 4348.64 4608.46 4344.66 4614.59L4353.14 4621.2C4341.68 4618.72 4329.91 4619.39 4318.7 4623.18C4312.3 4626.13 4306.58 4630.9 4302.03 4637.08C4297.48 4643.27 4294.23 4650.69 4292.55 4658.71C4291.13 4671.22 4288.83 4683.57 4285.66 4695.6C4280.58 4708.17 4270.78 4712.34 4264.6 4723.38C4260.39 4733.16 4258.26 4744.05 4258.4 4755.07C4258.53 4766.1 4260.94 4776.9 4265.39 4786.52C4273.1 4802.26 4285.38 4813.96 4299.84 4819.35C4310.2 4823.86 4323.85 4824.11 4328.61 4807.65Z" fill="white"/>
<path id="Vector_16" d="M4569.4 4895.81C4573.13 4907.6 4578.13 4918.74 4584.28 4928.94C4595.8 4943 4611.48 4934.39 4625.48 4930.99C4638.18 4928.59 4651.18 4930.38 4663.1 4936.18C4675.02 4941.98 4685.42 4951.57 4693.2 4963.93C4687.81 4931.22 4676.01 4900.55 4658.78 4874.49C4641.55 4848.44 4619.4 4827.77 4594.19 4814.22C4561.23 4797.92 4526.49 4796.31 4492.19 4794.8L4486.27 4796.63C4501.3 4849.77 4548.7 4848.64 4569.4 4895.81Z" fill="white"/>
<path id="Vector_17" d="M3548.95 5003.16L3549.04 5003.4C3549.62 5002.06 3550.19 5000.72 3550.77 4999.39L3548.95 5003.16Z" fill="#E6E6E6"/>
<path id="Vector_18" d="M3512.3 5088.62C3504.31 5106.1 3497.43 5124.29 3491.73 5143.03C3484.17 5173.4 3479.15 5204.6 3476.75 5236.17C3474.87 5254.11 3474.27 5277.04 3483.56 5285.8C3486.23 5287.95 3489.46 5288.85 3492.63 5288.33C3495.81 5287.81 3498.73 5285.91 3500.83 5282.99C3506.01 5276.38 3510.25 5268.79 3513.38 5260.52C3531.72 5222.47 3545.97 5181.75 3555.79 5139.35C3564.75 5094.69 3564.73 5042.09 3549.04 5003.4C3536.79 5031.8 3524.55 5060.21 3512.3 5088.62Z" fill="white"/>
<path id="Vector_19" d="M3162.62 2810.21C3168.42 2817.08 3175.75 2821.74 3183.72 2823.63C3191.68 2825.52 3199.93 2824.55 3207.45 2820.85C3223.02 2812.64 3237.3 2801.27 3249.68 2787.21C3259.93 2778.07 3268.63 2766.63 3275.3 2753.52C3278.98 2745.69 3281.34 2737.05 3282.25 2728.11C3283.16 2719.17 3282.6 2710.1 3280.6 2701.43C3274.85 2680.99 3260.2 2674.13 3247.27 2669.48C3226.57 2662.03 3205.87 2654.58 3185.18 2647.13L3200.18 2630.83C3184.78 2620.82 3167.7 2639.35 3158.04 2662.31C3151.85 2677.3 3147.52 2693.31 3145.2 2709.83C3140 2745.88 3144.99 2788.82 3162.62 2810.21Z" fill="#E6E6E6"/>
<path id="Vector_20" d="M3528.38 2662.33C3534.21 2670.12 3542.27 2674.93 3550.92 2675.79C3559.58 2676.65 3568.19 2673.5 3574.99 2666.98C3580.85 2661.67 3585.72 2654.94 3589.29 2647.2C3592.85 2639.47 3595.02 2630.92 3595.67 2622.11C3597.16 2602.43 3589.14 2580.54 3577.64 2578.82L3580.29 2560.39C3558.14 2555.53 3530.88 2554.53 3518.96 2587.03C3514.94 2599.49 3513.7 2612.99 3515.35 2626.21C3517 2639.42 3521.49 2651.88 3528.38 2662.33Z" fill="#E6E6E6"/>
<path id="b262ea8c-1946-46c9-a449-3a1996c39394" d="M3390.03 2408.81C3478.8 2408.92 3550.88 2322.02 3551.02 2214.72C3551.15 2107.41 3479.3 2020.33 3390.52 2020.22C3301.75 2020.11 3229.67 2107.01 3229.53 2214.31C3229.4 2321.61 3301.25 2408.69 3390.03 2408.81Z" fill="white"/>
<path id="Vector_21" opacity="0.2" d="M3523.45 2075.48C3541.53 2088.65 3557.28 2105.99 3569.81 2126.51C3582.34 2147.04 3591.4 2170.35 3596.47 2195.11C3601.55 2219.88 3602.54 2245.61 3599.39 2270.84C3596.23 2296.07 3589 2320.3 3578.1 2342.16C3567.2 2364.01 3552.85 2383.06 3535.86 2398.22C3518.87 2413.37 3499.58 2424.33 3479.09 2430.48C3437.71 2442.89 3393.95 2434.93 3357.45 2408.34C3394.69 2418.41 3433.69 2412.12 3467.46 2390.61C3501.24 2369.1 3527.58 2333.76 3541.77 2290.93C3555.97 2248.1 3557.1 2200.56 3544.95 2156.84C3532.8 2113.11 3508.17 2076.04 3475.47 2052.27C3492.39 2056.83 3508.6 2064.67 3523.45 2075.48Z" fill="#231F20"/>
<path id="b262ea8c-1946-46c9-a449-3a1996c39394_2" d="M1905.35 2984.02C1972.02 2984.1 2026.15 2918.85 2026.25 2838.26C2026.35 2757.68 1972.39 2692.29 1905.72 2692.2C1839.05 2692.12 1784.93 2757.38 1784.83 2837.96C1784.72 2918.54 1838.69 2983.93 1905.35 2984.02Z" fill="white"/>
</g>
<path id="Vector_22" opacity="0.2" d="M2206.62 2333.58C2219.5 2346.81 2230.71 2364.24 2239.64 2384.87C2248.56 2405.5 2255 2428.94 2258.61 2453.84C2262.22 2478.73 2262.91 2504.6 2260.66 2529.97C2258.4 2555.34 2253.24 2579.71 2245.46 2601.69C2237.69 2623.67 2227.45 2642.83 2215.34 2658.07C2203.23 2673.31 2189.48 2684.34 2174.88 2690.53C2160.27 2696.72 2145.1 2697.94 2130.23 2694.13C2115.36 2690.32 2101.08 2681.55 2088.2 2668.32C2114.74 2678.42 2142.53 2672.09 2166.6 2650.45C2190.68 2628.8 2209.46 2593.27 2219.6 2550.19C2229.73 2507.12 2230.55 2459.33 2221.91 2415.37C2213.27 2371.41 2195.73 2334.15 2172.43 2310.26C2184.49 2314.84 2196.04 2322.71 2206.62 2333.58Z" fill="#231F20"/>
<path id="Vector_23" d="M5753.62 9019.3L5627.85 9019.14L5569.07 8191.75L5754.69 8192L5753.62 9019.3Z" fill="#A0616A"/>
<path id="Vector_24" d="M5820.76 9426.65L5731.52 9426.54L5715.77 9282.83L5674.79 9426.47L5438.1 9426.17C5426.75 9426.15 5415.71 9419.96 5406.59 9408.48C5397.46 9397 5390.73 9380.84 5387.38 9362.37C5384.03 9343.89 5384.23 9324.06 5387.95 9305.77C5391.67 9287.49 5398.72 9271.7 5408.07 9260.72L5597.37 9038.33L5597.56 8893.06L5796.34 8913.55L5820.76 9426.65Z" fill="#2A2285"/>
<path id="Vector_25" d="M5266.48 9018.69L5140.72 9018.53L5081.93 8191.13L5267.56 8191.38L5266.48 9018.69Z" fill="#A0616A"/>
<path id="Vector_26" d="M5333.63 9426.04L5244.38 9425.92L5228.64 9282.21L5187.66 9425.85L4950.96 9425.55C4939.62 9425.54 4928.58 9419.34 4919.45 9407.86C4910.33 9396.38 4903.6 9380.23 4900.24 9361.75C4896.89 9343.27 4897.09 9323.44 4900.81 9305.16C4904.54 9286.87 4911.59 9271.08 4920.94 9260.1L5110.24 9037.71L5110.42 8892.44L5309.21 8912.93L5333.63 9426.04Z" fill="#2A2285"/>
<path id="Vector_27" d="M4776.07 6813.91C4800.06 6875.51 5059.75 8568.38 5059.75 8568.38L5291.85 8613.82L5264.84 8187.94L5223.67 7434.28L5159.08 6931.18C5159.08 6931.18 5390.54 6037.48 5405.2 5966.29L5415.61 5915.2L5486.16 7029.07C5494.66 7068.85 5498.33 7111.17 5496.96 7153.46C5494.7 7223.03 5534.29 8269.75 5534.29 8269.75L5553.49 8645.15L5752.34 8692.52L5833.86 8043.15C5901.52 7832.25 5863.84 7082.5 5836.37 7012.69C5808.9 6942.87 5820.47 6456.9 5820.47 6456.9C5855.68 6435.83 6067.07 5215.75 5962.1 5222.82C5968.92 5157.77 5974.29 5099.7 5974.29 5099.7L5792.42 4848.88L5336.71 4646.16L5221.79 4551.81C5221.79 4551.81 5015.52 5199.46 5017.52 5231.69C5020.3 5272.5 5014.77 5313.72 5001.85 5348.44L4792.91 6532.15C4792.91 6532.15 4751.84 6751.7 4776.07 6813.91Z" fill="#2F2E41"/>
<path id="Vector_28" d="M5942.34 2598.52L5870.13 2335.77L5623.23 2351.64L5542.35 2624.79C5542.35 2624.79 5311.62 3093.29 5303.98 3245.71C5294.37 3437.42 5371.04 4377.12 5293.25 4316.12C5293.25 4316.12 5109.23 4683.34 5217.85 4683.48C5326.46 4683.62 5817.13 5210.25 5849.29 5269.44C5881.45 5328.63 6025.33 5367.17 6013.41 5243.66C6001.5 5120.15 5939.99 4452.2 5939.99 4452.2L6110.12 3402.23C6158.99 3175.56 6174.43 2921.26 6064.8 2768.82L5942.34 2598.52Z" fill="#CCCCCC"/>
<path id="bcc29a3a-8123-4529-80aa-6f70df2823cf" d="M4650.34 3360.17C4682.26 3360.21 4708.19 3316.11 4708.26 3261.68C4708.33 3207.25 4682.51 3163.09 4650.59 3163.05C4618.68 3163.01 4592.74 3207.1 4592.68 3261.53C4592.61 3315.97 4618.43 3360.13 4650.34 3360.17Z" fill="#6C63FF"/>
<path id="Vector_29" d="M4624.47 3227.64C4637.91 3222.93 4651.79 3223.31 4665.12 3228.74C4678.46 3234.17 4690.94 3244.52 4701.67 3259.07C4712.4 3273.62 4721.12 3292.01 4727.23 3312.94C4733.34 3333.87 4736.68 3356.84 4737.01 3380.23L4937.02 3511.52L4919.71 3738.38L4638.79 3546.2C4615.72 3544.62 4593.8 3528.65 4577.18 3501.33C4560.57 3474.01 4550.42 3437.23 4548.65 3397.97C4546.89 3358.7 4553.63 3319.67 4567.6 3288.28C4581.58 3256.89 4601.81 3235.31 4624.47 3227.64Z" fill="white"/>
<path id="Vector_30" d="M6023.75 2761.86C6002.7 2739.89 5979.31 2725.23 5954.92 2718.72C5930.53 2712.21 5905.61 2713.97 5881.61 2723.92C5857.61 2733.86 5834.98 2751.78 5815.04 2776.66C5795.09 2801.54 5778.22 2832.88 5765.38 2868.88L5477.03 3677.71L4827.73 3414.27L4768.2 3691.3L5599.27 4364.41L6022.06 3220.44C6085.33 3069.33 6116.49 2858.67 6023.75 2761.86Z" fill="#CCCCCC"/>
<path id="Vector_31" d="M6035.73 1770.19C6035.65 1848.18 6024.34 1924.97 6002.8 1993.82C5981.27 2062.67 5950.15 2121.48 5912.2 2165.08C5874.24 2208.67 5830.61 2235.73 5785.12 2243.87C5739.63 2252.01 5693.68 2240.99 5651.31 2211.76C5608.93 2182.54 5571.42 2136.02 5542.08 2076.27C5512.73 2016.53 5492.45 1945.39 5483 1869.1C5473.55 1792.82 5475.23 1713.71 5487.89 1638.74C5500.56 1563.77 5523.81 1495.22 5555.62 1439.1L5556.96 1436.82C5559.2 1432.82 5561.44 1428.82 5563.79 1425.01C5563.81 1425.01 5563.82 1425.01 5563.84 1425C5563.85 1424.99 5563.86 1424.97 5563.87 1424.96C5563.88 1424.94 5563.89 1424.92 5563.9 1424.89C5563.9 1424.87 5563.91 1424.85 5563.91 1424.82C5566.82 1420.25 5569.73 1415.68 5572.75 1411.3C5613.2 1350.99 5662.96 1311.82 5716.09 1298.46C5769.21 1285.11 5823.45 1298.15 5872.3 1336.02C5921.15 1373.88 5962.54 1434.98 5991.53 1511.98C6020.51 1588.98 6035.86 1678.63 6035.73 1770.19Z" fill="#2F2E41"/>
<path id="Vector_32" d="M5686.88 2279.52C5816.26 2279.68 5921.37 2100.94 5921.65 1880.28C5921.93 1659.63 5817.27 1480.62 5687.89 1480.45C5558.5 1480.29 5453.39 1659.03 5453.11 1879.69C5452.83 2100.35 5557.49 2279.36 5686.88 2279.52Z" fill="#9E616A"/>
<path id="Vector_33" d="M5936.01 1994.24L5897.21 1982.5C5875.53 1975.75 5855.59 1957.87 5840.04 1931.25C5824.5 1904.62 5814.1 1870.53 5810.24 1833.53L5772.22 1941.74L5770.57 1942.67C5680.26 1993.65 5586.39 1978.25 5483.65 1895.65C5454.28 1871.83 5425.79 1844.97 5398.33 1815.22L5396.31 1813.06L5396.15 1808.99C5391.07 1679.02 5408.3 1570.46 5444.7 1503.31C5458.67 1478.05 5475.61 1458.1 5494.41 1444.77C5513.21 1431.45 5533.44 1425.04 5553.78 1425.97C5555.23 1425.33 5556.56 1424.08 5557.66 1422.33C5558.18 1421.68 5558.7 1421.03 5559.22 1420.42L5559.22 1419.75L5561.92 1417.59C5567.7 1412.96 5573.6 1408.53 5579.5 1404.48C5625.89 1373.94 5676.38 1366.32 5725.16 1382.52C5773.94 1398.71 5819.03 1438.05 5855.25 1496.02C5927.27 1613.61 5960.12 1810.82 5936.99 1986.78L5936.01 1994.24Z" fill="#2F2E41"/>
<path id="Vector_34" d="M6429.71 2335.27C6350.08 2264.99 6452.93 2010.43 6432.52 1861.49C6412.1 1712.55 6263.8 1664.47 6254.54 1512.31C6245.28 1360.14 6223.24 1203.19 6164.52 1087.66C6126.99 1013.84 6071.63 959.303 6014.55 968.472C5995.23 971.574 5976.53 981.737 5959.72 998.27C5942.9 1014.8 5928.37 1037.32 5917.11 1064.28C5905.85 1091.24 5898.12 1122.02 5894.46 1154.51C5890.8 1187 5891.29 1220.45 5895.89 1252.57C5879.69 1213.29 5837.62 1221.75 5827.16 1266.4C5817.85 1306.09 5838.24 1354.21 5862.29 1357.75C5893.69 1424.1 5929.65 1494.51 5978.95 1507.94C5986.8 1511.03 5994.97 1511.03 6002.83 1507.95C6010.69 1504.87 6018.04 1498.78 6024.32 1490.15C6035.95 1471.16 6036.9 1433.17 6023.15 1418.95C6085.08 1461.02 6121.27 1575.35 6130.32 1688.01C6139.38 1800.67 6126.51 1914.64 6117.98 2027.46C6109.46 2140.28 6105.69 2258.98 6131.5 2363.79C6162 2487.63 6232.45 2576.44 6309.43 2605C6386.4 2633.55 6468.45 2605.84 6538.24 2543.27C6608.02 2480.7 6666.27 2385.12 6713.9 2277.94C6631.97 2376.89 6518.76 2413.86 6429.71 2335.27Z" fill="#2F2E41"/>
<path id="Vector_35" d="M5926.06 1983.12C5926.06 1983.12 5857.22 1541.26 5559.86 1438.92C5559.53 1438.73 5558.41 1437.97 5556.96 1436.82C5556.07 1435.87 5554.95 1434.91 5553.84 1433.96C5557.19 1430.72 5560.44 1427.87 5563.79 1425.01L5563.84 1425L5563.87 1424.96L5563.9 1424.89L5563.9 1424.82C5566.82 1420.25 5569.73 1415.68 5572.75 1411.3L5581.24 1411.88C5581.24 1411.88 5879.83 1331.65 5926.06 1983.12Z" fill="#2A2285"/>
<path id="Vector_36" opacity="0.2" d="M5768.89 3400.47L5600.45 3732.23L5323.01 3592.07L5625.36 3830.31L5768.89 3400.47Z" fill="#1E1E1E"/>
<g id="line">
<path id="Vector_37" d="M6293.24 5728.78C6205.09 5759.64 6105.9 5786.12 5995.67 5808.2C5425.47 5922.27 4628.65 5903.73 3752 5756.01C2875.35 5608.29 2023.6 5349 1353.66 5025.95C1027.31 4868.57 761.661 4704.45 564.1 4538.13C354.94 4362.07 229.681 4188.61 191.804 4022.62C118.019 3699.23 405.373 3522.21 659.427 3430.65L675.355 3475.86C326.471 3601.59 163.165 3797.19 215.515 4026.62C282.185 4318.83 694.846 4666.96 1347.69 4981.78C2016.16 5304.13 2866.33 5562.89 3741.59 5710.39C4616.85 5857.87 5412.21 5876.41 5981.16 5762.59C6536.79 5651.45 6817.24 5420.09 6750.57 5127.88C6695.21 4885.26 6401.01 4602.33 5922.17 4331.16L5917.51 4287.69C6265.45 4484.72 6696.52 4791.12 6774.28 5131.88C6812.15 5297.87 6759.19 5441.28 6616.86 5558.12C6535.73 5624.72 6427.42 5681.79 6293.24 5728.78Z" fill="#6C63FF"/>
</g>
</g>
</svg>
